<svg xmlns="http://www.w3.org/2000/svg" width="24" height="24" viewBox="0 0 24 24"><defs><style>.a{fill:#1574f6;}</style></defs><path class="a" d="M21,9V3.621a1.5,1.5,0,0,0-.439-1.061L18.439.439A1.5,1.5,0,0,0,17.378,0H4.5A1.5,1.5,0,0,0,3,1.5V9a3,3,0,0,0-3,3v5.25A.75.75,0,0,0,.75,18H3v4.5A1.5,1.5,0,0,0,4.5,24h15A1.5,1.5,0,0,0,21,22.5V18h2.25a.75.75,0,0,0,.75-.75V12A3,3,0,0,0,21,9ZM18,21H6V16.5H18Zm0-10.5H6V3h9V5.25a.75.75,0,0,0,.75.75H18Zm2.25,3.375a1.125,1.125,0,1,1,1.125-1.125A1.125,1.125,0,0,1,20.25,13.875Z"/></svg>