<svg xmlns="http://www.w3.org/2000/svg" width="24" height="24" viewBox="0 0 24 24"><defs><style>.a{fill:#c0c5d2;}</style></defs><g transform="translate(-0.082 18.918)"><path class="a" d="M13.735,24H10.266a.594.594,0,0,1-.383-.133.466.466,0,0,1-.179-.335l-.438-2.875a9.8,9.8,0,0,1-1.406-.578l-2.2,1.672a.566.566,0,0,1-.391.14.538.538,0,0,1-.391-.172A20.611,20.611,0,0,1,2.3,19.093a.609.609,0,0,1,.015-.719c.152-.213.413-.552.8-1.038s.663-.851.844-1.1a7.707,7.707,0,0,1-.641-1.547l-2.86-.421a.494.494,0,0,1-.328-.2A.586.586,0,0,1,0,13.7V10.234a.6.6,0,0,1,.125-.359.472.472,0,0,1,.3-.2l2.906-.438A7.8,7.8,0,0,1,3.937,7.8c-.413-.589-.976-1.314-1.672-2.156a.589.589,0,0,1-.156-.375.66.66,0,0,1,.14-.36A15.65,15.65,0,0,1,3.789,3.227C4.541,2.485,5.038,2.11,5.266,2.11a.665.665,0,0,1,.406.156L7.828,3.937A8.9,8.9,0,0,1,9.25,3.344,25.194,25.194,0,0,1,9.7.438.527.527,0,0,1,10.265,0h3.469a.6.6,0,0,1,.383.132A.466.466,0,0,1,14.3.468l.438,2.875a9.7,9.7,0,0,1,1.406.578L18.359,2.25a.509.509,0,0,1,.375-.14.606.606,0,0,1,.391.156A21.437,21.437,0,0,1,21.7,4.922a.508.508,0,0,1,.109.343.6.6,0,0,1-.124.359c-.157.219-.425.569-.8,1.039-.4.5-.663.851-.843,1.1A9.607,9.607,0,0,1,20.688,9.3l2.859.438a.494.494,0,0,1,.328.2A.594.594,0,0,1,24,10.3v3.469a.6.6,0,0,1-.125.359.477.477,0,0,1-.313.2l-2.891.437a9.985,9.985,0,0,1-.609,1.422c.36.514.922,1.24,1.672,2.157a.606.606,0,0,1,.156.391.518.518,0,0,1-.14.359A15.8,15.8,0,0,1,20.2,20.781c-.746.736-1.24,1.109-1.468,1.109a.771.771,0,0,1-.407-.14l-2.156-1.687a8.97,8.97,0,0,1-1.422.594,25.783,25.783,0,0,1-.453,2.906A.529.529,0,0,1,13.735,24ZM12,8a4,4,0,0,0-4,4,4,4,0,0,0,4,4,4,4,0,0,0,4-4,4,4,0,0,0-4-4Z" transform="translate(0.082 -18.918)"/></g></svg>