<svg xmlns="http://www.w3.org/2000/svg" width="50" height="50" viewBox="0 0 50 50"><defs><style>.a{fill:#e7f1fe;}.b{fill:#1574f6;}</style></defs><g transform="translate(-512 -545)"><circle class="a" cx="25" cy="25" r="25" transform="translate(512 545)"/><g transform="translate(519.75 552.375)"><path class="b" d="M30.79,14.625h-.027a1.463,1.463,0,0,0-1.46,1.46.149.149,0,0,1-.147.147H5.344a.149.149,0,0,1-.147-.147,1.463,1.463,0,0,0-1.46-1.46H3.71a1.463,1.463,0,0,0-1.46,1.46v12.08a1.463,1.463,0,0,0,1.46,1.46h.027a1.463,1.463,0,0,0,1.46-1.46V27.75a.269.269,0,0,1,.268-.268H29.036a.269.269,0,0,1,.268.268v.415a1.463,1.463,0,0,0,1.46,1.46h.027a1.463,1.463,0,0,0,1.46-1.46V16.085A1.463,1.463,0,0,0,30.79,14.625Z" transform="translate(0 -0.429)"/><path class="b" d="M5.879,14.6H7.386a.269.269,0,0,0,.268-.268V13.46a1.075,1.075,0,0,1,1.071-1.071h6.529a1.075,1.075,0,0,1,1.071,1.071v.871a.269.269,0,0,0,.268.268H18.2a.269.269,0,0,0,.268-.268V13.46a1.075,1.075,0,0,1,1.071-1.071h6.529a1.075,1.075,0,0,1,1.071,1.071v.871a.269.269,0,0,0,.268.268h1.507a.537.537,0,0,0,.536-.536V7.768a2.149,2.149,0,0,0-2.143-2.143H7.487A2.149,2.149,0,0,0,5.344,7.768v6.295A.537.537,0,0,0,5.879,14.6Z" transform="translate(-0.147)"/></g></g></svg>