<svg xmlns="http://www.w3.org/2000/svg" width="50" height="50" viewBox="0 0 50 50"><defs><style>.a{fill:#e7f1fe;}.b{fill:#1574f6;}</style></defs><g transform="translate(-512 -545)"><circle class="a" cx="25" cy="25" r="25" transform="translate(512 545)"/><path class="b" d="M9.526,10.66h3.125v3.125H9.526Zm4.687,0h3.125v3.125H14.214Zm4.687,0h3.125v3.125H18.9ZM4.839,20.035H7.964V23.16H4.839Zm4.687,0h3.125V23.16H9.526Zm4.687,0h3.125V23.16H14.214ZM9.526,15.348h3.125v3.125H9.526Zm4.687,0h3.125v3.125H14.214Zm4.688,0h3.125v3.125H18.9Zm-14.062,0H7.964v3.125H4.839ZM22.026,1.285V2.848H18.9V1.285H7.964V2.848H4.839V1.285H1.714v25H25.151v-25H22.026Zm1.563,23.437H3.276V7.535H23.589V24.723Z" transform="translate(523.286 556.715)"/></g></svg>