<svg xmlns="http://www.w3.org/2000/svg" width="50" height="50" viewBox="0 0 50 50"><defs><style>.a{fill:#cef4df;}.b{fill:#0dc85e;}</style></defs><g transform="translate(-683 -625)"><g transform="translate(63)"><circle class="a" cx="25" cy="25" r="25" transform="translate(620 625)"/></g><g transform="translate(1238.859 638)"><g transform="translate(-542.859)"><g transform="translate(0)"><path class="b" d="M-521.582,0H-539.15a3.706,3.706,0,0,0-3.709,3.66,3.706,3.706,0,0,0,3.709,3.66h.732V4.392h-.732a.732.732,0,0,1-.732-.732.732.732,0,0,1,.732-.732h17.568a.732.732,0,0,1,.732.732.732.732,0,0,1-.732.732h-.732V7.32h.732a3.706,3.706,0,0,0,3.709-3.66A3.707,3.707,0,0,0-521.582,0Z" transform="translate(542.859)"/></g></g><g transform="translate(-536.954 4.392)"><path class="b" d="M-408.75,89.951h-13.176v20.165c.387.387.808.656,1.25.215l.946-.946.946.946a.732.732,0,0,0,1.035,0l.946-.946.946.946a.732.732,0,0,0,1.035,0l.946-.946.946.946a.732.732,0,0,0,1.035,0l.946-.946.946.946a.73.73,0,0,0,.518.214c.347,0,.493-.19.732-.429V89.951Zm-8.765,14.508c-.006,0-.013,0-.019,0v.861a.732.732,0,0,1-.732.732.732.732,0,0,1-.732-.732v-.866a3.011,3.011,0,0,1-1.339-.943.731.731,0,0,1,.09-1.031.732.732,0,0,1,1.031.09,1.128,1.128,0,0,0,1.2.51.735.735,0,0,0,.482-.688.733.733,0,0,0-.732-.732,2.2,2.2,0,0,1-2.2-2.2A2.141,2.141,0,0,1-419,97.414v-.875a.732.732,0,0,1,.732-.732.732.732,0,0,1,.732.732v.876a2.823,2.823,0,0,1,1.079.651.732.732,0,0,1,.016,1.035.732.732,0,0,1-1.035.016,1,1,0,0,0-1.076-.325.732.732,0,0,0-.448.675.733.733,0,0,0,.732.732,2.2,2.2,0,0,1,2.2,2.2A2.2,2.2,0,0,1-417.515,104.459Zm6.569.132h-2.928a.732.732,0,0,1-.732-.732.732.732,0,0,1,.732-.732h2.928a.732.732,0,0,1,.732.732A.732.732,0,0,1-410.946,104.591Zm0-2.928h-2.928a.732.732,0,0,1-.732-.732.732.732,0,0,1,.732-.732h2.928a.732.732,0,0,1,.732.732A.732.732,0,0,1-410.946,101.663Zm0-2.928h-2.928a.732.732,0,0,1-.732-.732.732.732,0,0,1,.732-.732h2.928a.732.732,0,0,1,.732.732A.732.732,0,0,1-410.946,98.735Zm0-4.392h-8.784a.732.732,0,0,1-.732-.732.732.732,0,0,1,.732-.732h8.784a.732.732,0,0,1,.732.732A.732.732,0,0,1-410.946,94.343Z" transform="translate(421.926 -89.951)"/></g></g></g></svg>