<svg xmlns="http://www.w3.org/2000/svg" width="29.984" height="30" viewBox="0 0 29.984 30"><defs><style>.a{fill:#a9abb8;}</style></defs><g transform="translate(542.859)"><g transform="translate(-542.859)"><g transform="translate(0)"><path class="a" d="M-517.326,0h-21.082a4.448,4.448,0,0,0-4.451,4.392,4.448,4.448,0,0,0,4.451,4.392h.878V5.271h-.878a.878.878,0,0,1-.878-.878.878.878,0,0,1,.878-.878h21.082a.878.878,0,0,1,.878.878.878.878,0,0,1-.878.878h-.878V8.784h.878a4.448,4.448,0,0,0,4.451-4.392A4.448,4.448,0,0,0-517.326,0Z" transform="translate(542.859)"/></g></g><g transform="translate(-535.773 5.271)"><path class="a" d="M-406.114,89.951h-15.812v24.2c.464.464.97.787,1.5.257l1.136-1.136,1.136,1.136a.878.878,0,0,0,1.242,0l1.136-1.136,1.136,1.136a.878.878,0,0,0,1.242,0l1.136-1.136,1.136,1.136a.878.878,0,0,0,1.242,0l1.136-1.136,1.136,1.136a.876.876,0,0,0,.621.257c.417,0,.591-.227.878-.515v-24.2Zm-10.518,17.41c-.008,0-.016,0-.023,0V108.4a.878.878,0,0,1-.878.878.878.878,0,0,1-.878-.878v-1.039a3.613,3.613,0,0,1-1.607-1.131.877.877,0,0,1,.108-1.237.878.878,0,0,1,1.237.108,1.353,1.353,0,0,0,1.44.612.882.882,0,0,0,.578-.826.879.879,0,0,0-.878-.878,2.638,2.638,0,0,1-2.635-2.635,2.57,2.57,0,0,1,1.757-2.464V97.857a.878.878,0,0,1,.878-.878.878.878,0,0,1,.878.878v1.052a3.388,3.388,0,0,1,1.294.781.878.878,0,0,1,.019,1.242.879.879,0,0,1-1.242.019,1.2,1.2,0,0,0-1.291-.389.878.878,0,0,0-.537.81.879.879,0,0,0,.878.878,2.638,2.638,0,0,1,2.635,2.635A2.643,2.643,0,0,1-416.632,107.361Zm7.883.159h-3.514a.878.878,0,0,1-.878-.878.878.878,0,0,1,.878-.878h3.514a.878.878,0,0,1,.878.878A.878.878,0,0,1-408.75,107.519Zm0-3.514h-3.514a.878.878,0,0,1-.878-.878.878.878,0,0,1,.878-.878h3.514a.878.878,0,0,1,.878.878A.878.878,0,0,1-408.75,104.006Zm0-3.514h-3.514a.878.878,0,0,1-.878-.878.878.878,0,0,1,.878-.878h3.514a.878.878,0,0,1,.878.878A.878.878,0,0,1-408.75,100.492Zm0-5.271h-10.541a.878.878,0,0,1-.878-.878.878.878,0,0,1,.878-.878h10.541a.878.878,0,0,1,.878.878A.878.878,0,0,1-408.75,95.221Z" transform="translate(421.926 -89.951)"/></g></g></svg>