<svg xmlns="http://www.w3.org/2000/svg" width="24" height="24" viewBox="0 0 24 24"><defs><style>.a{fill:#fff;}</style></defs><path class="a" d="M21.653,19.594H20.569l-.384-.37A8.917,8.917,0,1,0,4.5,13.419c0,1.216,1.6,4.241,1.6,4.241l2.332,3.155a14.8,14.8,0,0,0,4.988,1.524,8.88,8.88,0,0,0,5.8-2.154l.37.384v1.084L26.455,28.5,28.5,26.455Zm-8.233,0a6.167,6.167,0,0,1-6.175-6.175C7.244,11.9,8.9,9.208,8.9,9.208s2.621-1.964,4.521-1.964a6.175,6.175,0,1,1,0,12.35Z" transform="translate(-4.5 -4.5)"/></svg>