<svg xmlns="http://www.w3.org/2000/svg" width="50" height="50" viewBox="0 0 50 50"><defs><style>.a{fill:#fed6de;}.b{fill:#fa345d;}</style></defs><circle class="a" cx="25" cy="25" r="25"/><path class="b" d="M17.439,2V13.228H28.667A11.225,11.225,0,0,0,17.439,2Zm8.87,19.495a11.155,11.155,0,0,0,2.358-6.863H8.232L6.9,11.825H2v2.807H5.116s2.653,5.712,2.975,6.2a4.91,4.91,0,1,0,7.186,5.025H18.2a4.908,4.908,0,1,0,8.112-4.365ZM10.421,27.263a2.105,2.105,0,1,1,2.105-2.105A2.1,2.1,0,0,1,10.421,27.263Zm12.632,0a2.105,2.105,0,1,1,2.105-2.105A2.1,2.1,0,0,1,23.053,27.263Z" transform="translate(10 9)"/></svg>