<svg xmlns="http://www.w3.org/2000/svg" width="24" height="16.8" viewBox="0 0 24 16.8"><defs><style>.a{fill:#306bad;}</style></defs><path class="a" d="M7.2,9.9A4.2,4.2,0,1,0,3,5.7,4.2,4.2,0,0,0,7.2,9.9Zm2.88,1.2H9.769a5.8,5.8,0,0,1-5.138,0H4.32A4.321,4.321,0,0,0,0,15.42V16.5a1.8,1.8,0,0,0,1.8,1.8H12.6a1.8,1.8,0,0,0,1.8-1.8V15.42A4.321,4.321,0,0,0,10.08,11.1ZM18,9.9a3.6,3.6,0,1,0-3.6-3.6A3.6,3.6,0,0,0,18,9.9Zm1.8,1.2h-.143a4.729,4.729,0,0,1-3.315,0H16.2a4.165,4.165,0,0,0-2.089.578A5.488,5.488,0,0,1,15.6,15.42v1.44c0,.083-.019.161-.023.24H22.2A1.8,1.8,0,0,0,24,15.3a4.2,4.2,0,0,0-4.2-4.2Z" transform="translate(0 -1.5)"/></svg>