<svg xmlns="http://www.w3.org/2000/svg" width="23.987" height="24" viewBox="0 0 23.987 24"><defs><style>.a{fill:#1574f6;}</style></defs><g transform="translate(542.859)"><g transform="translate(-542.859)"><g transform="translate(0)"><path class="a" d="M-522.433,0H-539.3a3.558,3.558,0,0,0-3.561,3.514A3.558,3.558,0,0,0-539.3,7.027h.7V4.216h-.7a.7.7,0,0,1-.7-.7.7.7,0,0,1,.7-.7h16.866a.7.7,0,0,1,.7.7.7.7,0,0,1-.7.7h-.7V7.027h.7a3.558,3.558,0,0,0,3.561-3.514A3.558,3.558,0,0,0-522.433,0Z" transform="translate(542.859)"/></g></g><g transform="translate(-537.19 4.216)"><path class="a" d="M-409.277,89.951h-12.649V109.31c.371.371.776.63,1.2.206l.909-.909.909.909a.7.7,0,0,0,.994,0l.909-.909.909.909a.7.7,0,0,0,.994,0l.909-.909.909.909a.7.7,0,0,0,.994,0l.909-.909.909.909a.7.7,0,0,0,.5.206c.333,0,.473-.182.7-.412V89.951Zm-8.414,13.928c-.006,0-.012,0-.019,0v.826a.7.7,0,0,1-.7.7.7.7,0,0,1-.7-.7v-.831a2.89,2.89,0,0,1-1.285-.905.7.7,0,0,1,.086-.99.7.7,0,0,1,.99.086,1.083,1.083,0,0,0,1.152.489.706.706,0,0,0,.463-.661.7.7,0,0,0-.7-.7,2.111,2.111,0,0,1-2.108-2.108,2.056,2.056,0,0,1,1.405-1.971v-.84a.7.7,0,0,1,.7-.7.7.7,0,0,1,.7.7v.841a2.711,2.711,0,0,1,1.036.625.7.7,0,0,1,.015.994.7.7,0,0,1-.994.015.958.958,0,0,0-1.033-.312.7.7,0,0,0-.43.648.7.7,0,0,0,.7.7A2.111,2.111,0,0,1-416.3,101.9,2.114,2.114,0,0,1-417.691,103.879Zm6.306.127H-414.2a.7.7,0,0,1-.7-.7.7.7,0,0,1,.7-.7h2.811a.7.7,0,0,1,.7.7A.7.7,0,0,1-411.385,104.006Zm0-2.811H-414.2a.7.7,0,0,1-.7-.7.7.7,0,0,1,.7-.7h2.811a.7.7,0,0,1,.7.7A.7.7,0,0,1-411.385,101.195Zm0-2.811H-414.2a.7.7,0,0,1-.7-.7.7.7,0,0,1,.7-.7h2.811a.7.7,0,0,1,.7.7A.7.7,0,0,1-411.385,98.384Zm0-4.216h-8.433a.7.7,0,0,1-.7-.7.7.7,0,0,1,.7-.7h8.433a.7.7,0,0,1,.7.7A.7.7,0,0,1-411.385,94.167Z" transform="translate(421.926 -89.951)"/></g></g></svg>