<svg xmlns="http://www.w3.org/2000/svg" width="18" height="24" viewBox="0 0 18 24"><defs><style>.a{fill:#306bad;}</style></defs><path class="a" d="M17.672,4.922,13.083.328a1.124,1.124,0,0,0-.8-.328H12V6h6V5.714A1.121,1.121,0,0,0,17.672,4.922ZM10.5,6.375V0H1.125A1.122,1.122,0,0,0,0,1.125v21.75A1.122,1.122,0,0,0,1.125,24h15.75A1.122,1.122,0,0,0,18,22.875V7.5H11.625A1.128,1.128,0,0,1,10.5,6.375Zm-7.5-3A.375.375,0,0,1,3.375,3h3.75a.375.375,0,0,1,.375.375v.75a.375.375,0,0,1-.375.375H3.375A.375.375,0,0,1,3,4.125Zm0,3.75v-.75A.375.375,0,0,1,3.375,6h3.75a.375.375,0,0,1,.375.375v.75a.375.375,0,0,1-.375.375H3.375A.375.375,0,0,1,3,7.125ZM9.75,19.494v1.131A.375.375,0,0,1,9.375,21h-.75a.375.375,0,0,1-.375-.375V19.486a2.684,2.684,0,0,1-1.47-.532.376.376,0,0,1-.027-.569L7.3,17.86a.385.385,0,0,1,.475-.034,1.129,1.129,0,0,0,.6.174H9.7a.589.589,0,0,0,.553-.618.612.612,0,0,0-.411-.6L7.73,16.152a2.121,2.121,0,0,1-1.48-2.034,2.087,2.087,0,0,1,2-2.113V10.875a.375.375,0,0,1,.375-.375h.75a.375.375,0,0,1,.375.375v1.139a2.68,2.68,0,0,1,1.47.532.376.376,0,0,1,.027.569l-.551.525a.385.385,0,0,1-.475.034,1.124,1.124,0,0,0-.6-.174H8.3a.589.589,0,0,0-.553.618.612.612,0,0,0,.411.6l2.109.633a2.121,2.121,0,0,1,1.48,2.034,2.087,2.087,0,0,1-2,2.113Z"/></svg>