<svg xmlns="http://www.w3.org/2000/svg" width="50" height="50" viewBox="0 0 50 50"><defs><style>.a{fill:#dbdbf5;}.b{fill:#4b4bcd;}</style></defs><g transform="translate(-512 -625)"><circle class="a" cx="25" cy="25" r="25" transform="translate(512 625)"/><path class="b" d="M26.546,23.39c-.189.007-.378.013-.566.013a11.476,11.476,0,0,1-8.254-3.476,11.859,11.859,0,0,1-3.417-8.384A12.008,12.008,0,0,1,15.448,6.42,16.966,16.966,0,0,1,16.333,4.9a.257.257,0,0,0-.254-.4A12.532,12.532,0,0,0,5.625,16.933,12.469,12.469,0,0,0,18,29.5a12.271,12.271,0,0,0,9.432-4.433A11.89,11.89,0,0,0,28.5,23.644a.263.263,0,0,0-.267-.4A11.116,11.116,0,0,1,26.546,23.39Z" transform="translate(520.375 632.504)"/></g></svg>