<svg xmlns="http://www.w3.org/2000/svg" width="50" height="50" viewBox="0 0 50 50"><defs><style>.a{fill:#e6defe;}.b{fill:#8459fa;}</style></defs><circle class="a" cx="25" cy="25" r="25"/><path class="b" d="M4.5,10.5a3,3,0,1,0-3-3A3,3,0,0,0,4.5,10.5Zm21,0a3,3,0,1,0-3-3A3,3,0,0,0,25.5,10.5ZM27,12H24a2.991,2.991,0,0,0-2.114.872A6.857,6.857,0,0,1,25.406,18H28.5A1.5,1.5,0,0,0,30,16.5V15A3,3,0,0,0,27,12ZM15,12A5.25,5.25,0,1,0,9.75,6.75,5.247,5.247,0,0,0,15,12Zm3.6,1.5h-.389a7.248,7.248,0,0,1-6.422,0H11.4A5.4,5.4,0,0,0,6,18.9v1.35A2.251,2.251,0,0,0,8.25,22.5h13.5A2.251,2.251,0,0,0,24,20.25V18.9A5.4,5.4,0,0,0,18.6,13.5ZM8.114,12.872A2.991,2.991,0,0,0,6,12H3a3,3,0,0,0-3,3v1.5A1.5,1.5,0,0,0,1.5,18H4.589A6.874,6.874,0,0,1,8.114,12.872Z" transform="translate(10 13.5)"/></svg>