<svg xmlns="http://www.w3.org/2000/svg" width="18" height="24" viewBox="0 0 18 24"><defs><style>.a{fill:#306bad;}</style></defs><path class="a" d="M15.75,3H12A3,3,0,0,0,6,3H2.25A2.251,2.251,0,0,0,0,5.25v16.5A2.251,2.251,0,0,0,2.25,24h13.5A2.251,2.251,0,0,0,18,21.75V5.25A2.251,2.251,0,0,0,15.75,3ZM4.5,19.875A1.125,1.125,0,1,1,5.625,18.75,1.122,1.122,0,0,1,4.5,19.875Zm0-4.5A1.125,1.125,0,1,1,5.625,14.25,1.122,1.122,0,0,1,4.5,15.375Zm0-4.5A1.125,1.125,0,1,1,5.625,9.75,1.122,1.122,0,0,1,4.5,10.875Zm4.5-9A1.125,1.125,0,1,1,7.875,3,1.122,1.122,0,0,1,9,1.875Zm6,17.25a.376.376,0,0,1-.375.375H7.875a.376.376,0,0,1-.375-.375v-.75A.376.376,0,0,1,7.875,18h6.75a.376.376,0,0,1,.375.375Zm0-4.5a.376.376,0,0,1-.375.375H7.875a.376.376,0,0,1-.375-.375v-.75a.376.376,0,0,1,.375-.375h6.75a.376.376,0,0,1,.375.375Zm0-4.5a.376.376,0,0,1-.375.375H7.875a.376.376,0,0,1-.375-.375v-.75A.376.376,0,0,1,7.875,9h6.75A.376.376,0,0,1,15,9.375Z"/></svg>